<?xml version="1.0" encoding="UTF-8" standalone="no"?>
<!-- Created with Inkscape (http://www.inkscape.org/) -->

<svg
   xmlns:dc="http://purl.org/dc/elements/1.1/"
   xmlns:cc="http://creativecommons.org/ns#"
   xmlns:rdf="http://www.w3.org/1999/02/22-rdf-syntax-ns#"
   xmlns:svg="http://www.w3.org/2000/svg"
   xmlns="http://www.w3.org/2000/svg"
   xmlns:sodipodi="http://sodipodi.sourceforge.net/DTD/sodipodi-0.dtd"
   xmlns:inkscape="http://www.inkscape.org/namespaces/inkscape"
   width="100mm"
   height="80mm"
   viewBox="0 0 100 80"
   id="svg42104"
   version="1.1"
   inkscape:version="0.91+devel+osxmenu r12898"
   sodipodi:docname="logo.svg">
  <defs
     id="defs42106" />
  <sodipodi:namedview
     id="base"
     pagecolor="#ffffff"
     bordercolor="#666666"
     borderopacity="1.0"
     inkscape:pageopacity="0.0"
     inkscape:pageshadow="2"
     inkscape:zoom="1.4"
     inkscape:cx="152.2633"
     inkscape:cy="108.60029"
     inkscape:document-units="mm"
     inkscape:current-layer="layer1"
     showgrid="false"
     inkscape:window-width="1440"
     inkscape:window-height="900"
     inkscape:window-x="0"
     inkscape:window-y="23"
     inkscape:window-maximized="0" />
  <metadata
     id="metadata42109">
    <rdf:RDF>
      <cc:Work
         rdf:about="">
        <dc:format>image/svg+xml</dc:format>
        <dc:type
           rdf:resource="http://purl.org/dc/dcmitype/StillImage" />
        <dc:title />
      </cc:Work>
    </rdf:RDF>
  </metadata>
  <g
     inkscape:label="Layer 1"
     inkscape:groupmode="layer"
     id="layer1"
     transform="translate(0,-217)">
    <rect
       style="fill:#fcca1d;fill-opacity:1;stroke:#ba0f0d;stroke-width:0;stroke-miterlimit:4;stroke-dasharray:none;stroke-opacity:1"
       id="rect46101"
       width="100.49334"
       height="80.180862"
       x="-0.26726952"
       y="217.08641" />
    <g
       id="g4638"
       transform="matrix(0.67575014,0,0,-0.67575014,19.840464,227.16097)"
       style="fill:#000000">
      <path
         d="m 0,0 -15.728,0 0,-52.917 22.542,0 0,21.647 L 0,-31.27 0,0 Z"
         style="fill:#000000;fill-opacity:1;fill-rule:nonzero;stroke:none"
         id="path4640"
         inkscape:connector-curvature="0" />
    </g>
    <g
       id="g4642"
       transform="matrix(0.67575014,0,0,-0.67575014,26.536604,241.78928)"
       style="fill:#000000">
      <path
         d="m 0,0 0,-31.27 12.56,0 1.094,0 0,29.666 9.965,0 0,-29.666 1.502,0 11.741,0 0.41,0 0,29.666 9.683,0 0,-29.799 13.654,0 0,0.133 0.281,0 0,52.917 L 0,21.647 0,0 Z"
         style="fill:#000000;fill-opacity:1;fill-rule:nonzero;stroke:none"
         id="path4644"
         inkscape:connector-curvature="0" />
    </g>
    <path
       d="m 84.524817,248.42697 -4.442381,0 0,-5.48777 4.442381,0 0,5.48777 z m -14.242781,-21.26584 0,15.7774 4.090314,0 0,5.48844 -4.090314,0 0,14.49282 21.033392,0 0,-35.75866 -21.033392,0 z"
       style="fill:#000000;fill-opacity:1;fill-rule:nonzero;stroke:none;stroke-width:0.67575008"
       id="path4646"
       inkscape:connector-curvature="0" />
    <g
       transform="matrix(1.6226256,0,0,1.6226256,1.228484,-168.84165)"
       style="font-style:normal;font-weight:normal;font-size:10.58333302px;line-height:125%;font-family:sans-serif;letter-spacing:0px;word-spacing:0px;fill:#000000;fill-opacity:1;stroke:none;stroke-width:0.26458332px;stroke-linecap:butt;stroke-linejoin:miter;stroke-opacity:1"
       id="flowRoot45920">
      <path
         d="m 6.9877061,273.95141 q -1.0473254,0 -1.5898249,-0.56511 -0.5387322,-0.5651 -0.5387322,-1.62373 0,-1.06239 0.5839404,-1.64633 0.5839405,-0.58394 1.6614048,-0.58394 0.7421694,0 1.3976897,0.32399 l -0.4332462,1.08876 q -0.2674823,-0.11678 -0.4935238,-0.1846 -0.2260415,-0.0716 -0.4709197,-0.0716 -0.357899,0 -0.5538016,0.27879 -0.1959026,0.27878 -0.1959026,0.78738 0,1.02472 0.7572389,1.02472 0.6479855,0 1.243228,-0.37674 l 0,1.17165 q -0.568871,0.37674 -1.3675508,0.37674 z"
         style="font-style:normal;font-variant:normal;font-weight:800;font-stretch:normal;font-size:7.71554852px;line-height:104.99999523%;font-family:'Open Sans';-inkscape-font-specification:'Open Sans Ultra-Bold';fill:#000000;stroke-width:0.26458332px"
         id="path46035"
         inkscape:connector-curvature="0" />
      <path
         d="m 13.279194,271.73243 q 0,1.04733 -0.565104,1.63504 -0.561336,0.58394 -1.574756,0.58394 -0.971978,0 -1.5483836,-0.59901 -0.5726384,-0.59901 -0.5726384,-1.61997 0,-1.04356 0.5613363,-1.61996 0.5651037,-0.58017 1.5822907,-0.58017 0.629148,0 1.11137,0.26748 0.482222,0.26748 0.742169,0.76854 0.263716,0.49729 0.263716,1.16411 z m -2.765241,0 q 0,0.55004 0.146927,0.84012 0.146927,0.28632 0.493524,0.28632 0.342829,0 0.482222,-0.28632 0.143159,-0.29008 0.143159,-0.84012 0,-0.54626 -0.143159,-0.82505 -0.14316,-0.27878 -0.489757,-0.27878 -0.339062,0 -0.485989,0.27878 -0.146927,0.27502 -0.146927,0.82505 z"
         style="font-style:normal;font-variant:normal;font-weight:800;font-stretch:normal;font-size:7.71554852px;line-height:104.99999523%;font-family:'Open Sans';-inkscape-font-specification:'Open Sans Ultra-Bold';fill:#000000;stroke-width:0.26458332px"
         id="path46037"
         inkscape:connector-curvature="0" />
      <path
         d="m 16.809208,273.87606 0,-2.32823 q 0,-0.42571 -0.124323,-0.64045 -0.120556,-0.21851 -0.391805,-0.21851 -0.372969,0 -0.538733,0.29763 -0.165763,0.29762 -0.165763,1.02095 l 0,1.86861 -1.473037,0 0,-4.26842 1.11137,0 0.184601,0.52743 0.08665,0 q 0.188368,-0.30139 0.519896,-0.45208 0.335294,-0.15069 0.76854,-0.15069 0.708264,0 1.100069,0.41064 0.395572,0.41064 0.395572,1.15658 l 0,2.77654 -1.473036,0 z"
         style="font-style:normal;font-variant:normal;font-weight:800;font-stretch:normal;font-size:7.71554852px;line-height:104.99999523%;font-family:'Open Sans';-inkscape-font-specification:'Open Sans Ultra-Bold';fill:#000000;stroke-width:0.26458332px"
         id="path46039"
         inkscape:connector-curvature="0" />
      <path
         d="m 22.5808,272.56502 q 0,0.68566 -0.467153,1.03602 -0.467152,0.35037 -1.341179,0.35037 -0.474687,0 -0.825051,-0.0528 -0.350365,-0.049 -0.715798,-0.1846 l 0,-1.17918 q 0.342829,0.15069 0.749704,0.24864 0.410642,0.098 0.730867,0.098 0.478455,0 0.478455,-0.21851 0,-0.11302 -0.135625,-0.19967 -0.131858,-0.0904 -0.776076,-0.3466 -0.587708,-0.24111 -0.821284,-0.54626 -0.233576,-0.30893 -0.233576,-0.77985 0,-0.59524 0.459617,-0.92677 0.459618,-0.33152 1.299739,-0.33152 0.421944,0 0.791145,0.0942 0.372968,0.0904 0.772308,0.26748 l -0.39934,0.94938 q -0.293854,-0.13186 -0.621614,-0.22228 -0.32776,-0.0942 -0.534964,-0.0942 -0.361667,0 -0.361667,0.17706 0,0.10926 0.124323,0.18837 0.12809,0.0754 0.730867,0.31269 0.448316,0.1846 0.666823,0.36167 0.222274,0.17706 0.323993,0.41817 0.105486,0.23735 0.105486,0.58018 z"
         style="font-style:normal;font-variant:normal;font-weight:800;font-stretch:normal;font-size:7.71554852px;line-height:104.99999523%;font-family:'Open Sans';-inkscape-font-specification:'Open Sans Ultra-Bold';fill:#000000;stroke-width:0.26458332px"
         id="path46041"
         inkscape:connector-curvature="0" />
      <path
         d="m 25.4892,272.78729 q 0.297621,0 0.71203,-0.14692 l 0,1.07369 q -0.297621,0.12809 -0.568871,0.18084 -0.267482,0.0565 -0.629149,0.0565 -0.742169,0 -1.069929,-0.36167 -0.32776,-0.36543 -0.32776,-1.11891 l 0,-1.75935 -0.516128,0 0,-0.59901 0.65552,-0.46339 0.380503,-0.89663 0.964444,0 0,0.85519 1.047325,0 0,1.10384 -1.047325,0 0,1.6614 q 0,0.41441 0.39934,0.41441 z"
         style="font-style:normal;font-variant:normal;font-weight:800;font-stretch:normal;font-size:7.71554852px;line-height:104.99999523%;font-family:'Open Sans';-inkscape-font-specification:'Open Sans Ultra-Bold';fill:#000000;stroke-width:0.26458332px"
         id="path46043"
         inkscape:connector-curvature="0" />
      <path
         d="m 29.531574,269.5323 q 0.192135,0 0.365433,0.0301 l 0.08288,0.0151 -0.131857,1.39016 q -0.180833,-0.0452 -0.501059,-0.0452 -0.482222,0 -0.700728,0.22227 -0.218507,0.21851 -0.218507,0.63292 l 0,2.09842 -1.473037,0 0,-4.26842 1.096301,0 0.229809,0.68189 0.07158,0 q 0.1846,-0.33906 0.51236,-0.54626 0.331528,-0.21097 0.666823,-0.21097 z"
         style="font-style:normal;font-variant:normal;font-weight:800;font-stretch:normal;font-size:7.71554852px;line-height:104.99999523%;font-family:'Open Sans';-inkscape-font-specification:'Open Sans Ultra-Bold';fill:#000000;stroke-width:0.26458332px"
         id="path46045"
         inkscape:connector-curvature="0" />
      <path
         d="m 33.611624,273.87606 -0.184601,-0.5312 -0.08665,0 q -0.184601,0.29385 -0.516128,0.45208 -0.32776,0.15447 -0.772308,0.15447 -0.704496,0 -1.096301,-0.40688 -0.391806,-0.41064 -0.391806,-1.15658 l 0,-2.78031 1.473037,0 0,2.332 q 0,0.41817 0.116788,0.63291 0.120556,0.21474 0.391805,0.21474 0.380504,0 0.5425,-0.29762 0.161996,-0.30139 0.161996,-1.01342 l 0,-1.86861 1.473037,0 0,4.26842 -1.11137,0 z"
         style="font-style:normal;font-variant:normal;font-weight:800;font-stretch:normal;font-size:7.71554852px;line-height:104.99999523%;font-family:'Open Sans';-inkscape-font-specification:'Open Sans Ultra-Bold';fill:#000000;stroke-width:0.26458332px"
         id="path46047"
         inkscape:connector-curvature="0" />
      <path
         d="m 37.684136,273.95141 q -1.047325,0 -1.589825,-0.56511 -0.538732,-0.5651 -0.538732,-1.62373 0,-1.06239 0.583941,-1.64633 0.58394,-0.58394 1.661404,-0.58394 0.74217,0 1.39769,0.32399 l -0.433246,1.08876 q -0.267482,-0.11678 -0.493524,-0.1846 -0.226041,-0.0716 -0.47092,-0.0716 -0.357899,0 -0.553801,0.27879 -0.195903,0.27878 -0.195903,0.78738 0,1.02472 0.757239,1.02472 0.647986,0 1.243228,-0.37674 l 0,1.17165 q -0.568871,0.37674 -1.367551,0.37674 z"
         style="font-style:normal;font-variant:normal;font-weight:800;font-stretch:normal;font-size:7.71554852px;line-height:104.99999523%;font-family:'Open Sans';-inkscape-font-specification:'Open Sans Ultra-Bold';fill:#000000;stroke-width:0.26458332px"
         id="path46049"
         inkscape:connector-curvature="0" />
      <path
         d="m 41.990228,272.78729 q 0.297621,0 0.71203,-0.14692 l 0,1.07369 q -0.297621,0.12809 -0.568871,0.18084 -0.267482,0.0565 -0.629148,0.0565 -0.74217,0 -1.06993,-0.36167 -0.32776,-0.36543 -0.32776,-1.11891 l 0,-1.75935 -0.516128,0 0,-0.59901 0.65552,-0.46339 0.380503,-0.89663 0.964444,0 0,0.85519 1.047325,0 0,1.10384 -1.047325,0 0,1.6614 q 0,0.41441 0.39934,0.41441 z"
         style="font-style:normal;font-variant:normal;font-weight:800;font-stretch:normal;font-size:7.71554852px;line-height:104.99999523%;font-family:'Open Sans';-inkscape-font-specification:'Open Sans Ultra-Bold';fill:#000000;stroke-width:0.26458332px"
         id="path46051"
         inkscape:connector-curvature="0" />
      <path
         d="m 44.936301,273.87606 -1.473037,0 0,-4.26842 1.473037,0 0,4.26842 z m -1.510711,-5.33081 q 0,-0.33153 0.184601,-0.49353 0.1846,-0.16199 0.595242,-0.16199 0.410642,0 0.59901,0.16576 0.188368,0.16576 0.188368,0.48976 0,0.64798 -0.787378,0.64798 -0.779843,0 -0.779843,-0.64798 z"
         style="font-style:normal;font-variant:normal;font-weight:800;font-stretch:normal;font-size:7.71554852px;line-height:104.99999523%;font-family:'Open Sans';-inkscape-font-specification:'Open Sans Ultra-Bold';fill:#000000;stroke-width:0.26458332px"
         id="path46053"
         inkscape:connector-curvature="0" />
      <path
         d="m 50.048604,271.73243 q 0,1.04733 -0.565104,1.63504 -0.561336,0.58394 -1.574755,0.58394 -0.971978,0 -1.548384,-0.59901 -0.572638,-0.59901 -0.572638,-1.61997 0,-1.04356 0.561336,-1.61996 0.565104,-0.58017 1.58229,-0.58017 0.629149,0 1.111371,0.26748 0.482221,0.26748 0.742169,0.76854 0.263715,0.49729 0.263715,1.16411 z m -2.76524,0 q 0,0.55004 0.146927,0.84012 0.146927,0.28632 0.493523,0.28632 0.34283,0 0.482222,-0.28632 0.14316,-0.29008 0.14316,-0.84012 0,-0.54626 -0.14316,-0.82505 -0.143159,-0.27878 -0.489756,-0.27878 -0.339062,0 -0.485989,0.27878 -0.146927,0.27502 -0.146927,0.82505 z"
         style="font-style:normal;font-variant:normal;font-weight:800;font-stretch:normal;font-size:7.71554852px;line-height:104.99999523%;font-family:'Open Sans';-inkscape-font-specification:'Open Sans Ultra-Bold';fill:#000000;stroke-width:0.26458332px"
         id="path46055"
         inkscape:connector-curvature="0" />
      <path
         d="m 53.57862,273.87606 0,-2.32823 q 0,-0.42571 -0.124323,-0.64045 -0.120556,-0.21851 -0.391805,-0.21851 -0.372969,0 -0.538732,0.29763 -0.165764,0.29762 -0.165764,1.02095 l 0,1.86861 -1.473037,0 0,-4.26842 1.11137,0 0.184601,0.52743 0.08665,0 q 0.188368,-0.30139 0.519896,-0.45208 0.335294,-0.15069 0.768541,-0.15069 0.708263,0 1.100068,0.41064 0.395573,0.41064 0.395573,1.15658 l 0,2.77654 -1.473037,0 z"
         style="font-style:normal;font-variant:normal;font-weight:800;font-stretch:normal;font-size:7.71554852px;line-height:104.99999523%;font-family:'Open Sans';-inkscape-font-specification:'Open Sans Ultra-Bold';fill:#000000;stroke-width:0.26458332px"
         id="path46057"
         inkscape:connector-curvature="0" />
      <path
         d="m 8.4660103,281.43347 -0.3410644,-0.3514 q -0.3100586,0.19637 -0.5098742,0.27216 -0.1963704,0.0724 -0.4444173,0.11024 -0.2446018,0.0379 -0.5615506,0.0379 -0.5443251,0 -0.9646268,-0.18603 -0.4168565,-0.18604 -0.6407877,-0.52021 -0.2204862,-0.33418 -0.2204862,-0.76137 0,-0.90262 0.937066,-1.38148 -0.2135959,-0.24116 -0.3341742,-0.50988 -0.1171333,-0.27216 -0.1171333,-0.61322 0,-0.55122 0.4237468,-0.87506 0.4271918,-0.32384 1.1713325,-0.32384 0.7269152,0 1.1299913,0.32384 0.4065213,0.32039 0.4065213,0.87506 0,0.3824 -0.2204861,0.70968 -0.217041,0.32384 -0.6890191,0.60979 l 0.685574,0.65112 q 0.2583822,-0.39619 0.35829,-0.89572 l 1.3987088,0 q -0.1033529,0.47542 -0.3272841,0.95429 -0.2204861,0.47542 -0.4995389,0.81648 l 1.1024309,1.05765 -1.7432187,0 z M 6.1715767,279.9383 q 0,0.21704 0.1550293,0.35484 0.1550293,0.13781 0.4099663,0.13781 0.1963705,0 0.3445096,-0.0517 0.1481391,-0.0517 0.2273763,-0.11713 l -0.8543837,-0.86817 q -0.2824978,0.21015 -0.2824978,0.54433 z m 1.0163032,-2.40812 q 0,-0.16881 -0.099908,-0.24116 -0.096463,-0.0758 -0.2446018,-0.0758 -0.144694,0 -0.2549371,0.0861 -0.1067979,0.0861 -0.1067979,0.27561 0,0.25838 0.3031684,0.53399 0.1963704,-0.11024 0.2997233,-0.26183 0.1033529,-0.15503 0.1033529,-0.31694 z"
         style="font-style:normal;font-variant:normal;font-weight:800;font-stretch:normal;font-size:7.05555582px;line-height:104.99999523%;font-family:'Open Sans';-inkscape-font-specification:'Open Sans Ultra-Bold';fill:#000000;stroke-width:0.26458332px"
         id="path46059"
         inkscape:connector-curvature="0" />
      <path
         d="m 14.353679,281.50237 q -0.974962,0 -1.515842,-0.51676 -0.537435,-0.52021 -0.537435,-1.47795 0,-0.98874 0.499539,-1.51584 0.499539,-0.53055 1.426269,-0.53055 0.881945,0 1.360813,0.46165 0.482314,0.45819 0.482314,1.32291 l 0,0.59945 -2.408122,0 q 0.01378,0.32728 0.237711,0.51332 0.227377,0.18603 0.616672,0.18603 0.354845,0 0.651123,-0.0654 0.299724,-0.0689 0.647678,-0.23082 l 0,0.96807 q -0.316948,0.16192 -0.654568,0.22393 -0.337619,0.062 -0.806152,0.062 z m -0.07924,-3.1247 q -0.237712,0 -0.399631,0.15158 -0.158475,0.14814 -0.186036,0.46854 l 1.157553,0 q -0.0069,-0.2825 -0.16192,-0.45131 -0.151584,-0.16881 -0.409966,-0.16881 z"
         style="font-style:normal;font-variant:normal;font-weight:800;font-stretch:normal;font-size:7.05555582px;line-height:104.99999523%;font-family:'Open Sans';-inkscape-font-specification:'Open Sans Ultra-Bold';fill:#000000;stroke-width:0.26458332px"
         id="path46061"
         inkscape:connector-curvature="0" />
      <path
         d="m 19.300836,281.43347 0,-2.12907 q 0,-0.3893 -0.113688,-0.58567 -0.110243,-0.19981 -0.35829,-0.19981 -0.341064,0 -0.492648,0.27216 -0.151585,0.27216 -0.151585,0.93362 l 0,1.70877 -1.347032,0 0,-3.90329 1.016303,0 0.16881,0.48231 0.07924,0 q 0.172255,-0.27561 0.475423,-0.41341 0.306614,-0.13781 0.7028,-0.13781 0.647678,0 1.005968,0.37552 0.361735,0.37551 0.361735,1.05764 l 0,2.53904 -1.347033,0 z"
         style="font-style:normal;font-variant:normal;font-weight:800;font-stretch:normal;font-size:7.05555582px;line-height:104.99999523%;font-family:'Open Sans';-inkscape-font-specification:'Open Sans Ultra-Bold';fill:#000000;stroke-width:0.26458332px"
         id="path46063"
         inkscape:connector-curvature="0" />
      <path
         d="m 25.247072,277.53018 0,0.65112 -0.53399,0.19637 q 0.110243,0.19981 0.110243,0.46509 0,0.63045 -0.444418,0.9784 -0.440972,0.34796 -1.319471,0.34796 -0.217041,0 -0.34451,-0.0276 -0.04823,0.0896 -0.04823,0.16881 0,0.0999 0.161919,0.15503 0.16192,0.0517 0.423747,0.0517 l 0.647678,0 q 1.312582,0 1.312582,1.10588 0,0.71313 -0.609782,1.10932 -0.606337,0.39619 -1.705323,0.39619 -0.830268,0 -1.281575,-0.27906 -0.447863,-0.2756 -0.447863,-0.79581 0,-0.69936 0.868164,-0.90262 -0.179145,-0.0758 -0.313503,-0.2446 -0.130914,-0.16881 -0.130914,-0.33418 0,-0.18259 0.09991,-0.32039 0.09991,-0.14125 0.416856,-0.33417 -0.303168,-0.13436 -0.478868,-0.42031 -0.172255,-0.28594 -0.172255,-0.6959 0,-0.63735 0.434082,-0.98875 0.434082,-0.3514 1.240235,-0.3514 0.106798,0 0.368625,0.0241 0.261827,0.0241 0.385851,0.0448 l 1.360813,0 z m -2.942112,4.38905 q 0,0.16536 0.179145,0.26527 0.179145,0.10335 0.478868,0.10335 0.489204,0 0.782037,-0.12402 0.296278,-0.12058 0.296278,-0.3135 0,-0.15503 -0.179145,-0.22049 -0.179145,-0.062 -0.513319,-0.062 l -0.5271,0 q -0.217041,0 -0.368625,0.0999 -0.148139,0.10335 -0.148139,0.25149 z m 0.423747,-3.11092 q 0,0.59944 0.416856,0.59944 0.192926,0 0.296278,-0.14814 0.106798,-0.14814 0.106798,-0.44441 0,-0.60634 -0.403076,-0.60634 -0.416856,0 -0.416856,0.59945 z"
         style="font-style:normal;font-variant:normal;font-weight:800;font-stretch:normal;font-size:7.05555582px;line-height:104.99999523%;font-family:'Open Sans';-inkscape-font-specification:'Open Sans Ultra-Bold';fill:#000000;stroke-width:0.26458332px"
         id="path46065"
         inkscape:connector-curvature="0" />
      <path
         d="m 27.190104,281.43347 -1.347032,0 0,-3.90329 1.347032,0 0,3.90329 z m -1.381483,-4.87481 q 0,-0.30317 0.16881,-0.45131 0.168809,-0.14814 0.544325,-0.14814 0.375515,0 0.54777,0.15159 0.172255,0.15158 0.172255,0.44786 0,0.59255 -0.720025,0.59255 -0.713135,0 -0.713135,-0.59255 z"
         style="font-style:normal;font-variant:normal;font-weight:800;font-stretch:normal;font-size:7.05555582px;line-height:104.99999523%;font-family:'Open Sans';-inkscape-font-specification:'Open Sans Ultra-Bold';fill:#000000;stroke-width:0.26458332px"
         id="path46067"
         inkscape:connector-curvature="0" />
      <path
         d="m 30.60075,281.43347 0,-2.12907 q 0,-0.3893 -0.113688,-0.58567 -0.110243,-0.19981 -0.35829,-0.19981 -0.341065,0 -0.492649,0.27216 -0.151584,0.27216 -0.151584,0.93362 l 0,1.70877 -1.347032,0 0,-3.90329 1.016303,0 0.168809,0.48231 0.07924,0 q 0.172254,-0.27561 0.475423,-0.41341 0.306613,-0.13781 0.702799,-0.13781 0.647678,0 1.005968,0.37552 0.361735,0.37551 0.361735,1.05764 l 0,2.53904 -1.347032,0 z"
         style="font-style:normal;font-variant:normal;font-weight:800;font-stretch:normal;font-size:7.05555582px;line-height:104.99999523%;font-family:'Open Sans';-inkscape-font-specification:'Open Sans Ultra-Bold';fill:#000000;stroke-width:0.26458332px"
         id="path46069"
         inkscape:connector-curvature="0" />
      <path
         d="m 34.748645,281.50237 q -0.974962,0 -1.515842,-0.51676 -0.537435,-0.52021 -0.537435,-1.47795 0,-0.98874 0.499539,-1.51584 0.499539,-0.53055 1.426269,-0.53055 0.881945,0 1.360813,0.46165 0.482314,0.45819 0.482314,1.32291 l 0,0.59945 -2.408122,0 q 0.01378,0.32728 0.237711,0.51332 0.227377,0.18603 0.616673,0.18603 0.354844,0 0.651123,-0.0654 0.299723,-0.0689 0.647678,-0.23082 l 0,0.96807 q -0.316949,0.16192 -0.654569,0.22393 -0.337619,0.062 -0.806152,0.062 z m -0.07924,-3.1247 q -0.237712,0 -0.399631,0.15158 -0.158475,0.14814 -0.186035,0.46854 l 1.157552,0 q -0.0069,-0.2825 -0.16192,-0.45131 -0.151584,-0.16881 -0.409966,-0.16881 z"
         style="font-style:normal;font-variant:normal;font-weight:800;font-stretch:normal;font-size:7.05555582px;line-height:104.99999523%;font-family:'Open Sans';-inkscape-font-specification:'Open Sans Ultra-Bold';fill:#000000;stroke-width:0.26458332px"
         id="path46071"
         inkscape:connector-curvature="0" />
      <path
         d="m 39.117027,281.50237 q -0.974963,0 -1.515843,-0.51676 -0.537434,-0.52021 -0.537434,-1.47795 0,-0.98874 0.499538,-1.51584 0.499539,-0.53055 1.42627,-0.53055 0.881944,0 1.360813,0.46165 0.482313,0.45819 0.482313,1.32291 l 0,0.59945 -2.408122,0 q 0.01378,0.32728 0.237712,0.51332 0.227376,0.18603 0.616672,0.18603 0.354845,0 0.651123,-0.0654 0.299723,-0.0689 0.647678,-0.23082 l 0,0.96807 q -0.316949,0.16192 -0.654568,0.22393 -0.337619,0.062 -0.806152,0.062 z m -0.07924,-3.1247 q -0.237711,0 -0.399631,0.15158 -0.158474,0.14814 -0.186035,0.46854 l 1.157552,0 q -0.0069,-0.2825 -0.161919,-0.45131 -0.151585,-0.16881 -0.409967,-0.16881 z"
         style="font-style:normal;font-variant:normal;font-weight:800;font-stretch:normal;font-size:7.05555582px;line-height:104.99999523%;font-family:'Open Sans';-inkscape-font-specification:'Open Sans Ultra-Bold';fill:#000000;stroke-width:0.26458332px"
         id="path46073"
         inkscape:connector-curvature="0" />
      <path
         d="m 43.957386,277.46127 q 0.1757,0 0.334174,0.0276 l 0.07579,0.0138 -0.120579,1.27124 q -0.165364,-0.0413 -0.458198,-0.0413 -0.440972,0 -0.640787,0.20326 -0.199816,0.19982 -0.199816,0.57878 l 0,1.91892 -1.347032,0 0,-3.90329 1.002523,0 0.21015,0.62356 0.06546,0 q 0.16881,-0.31006 0.468533,-0.49954 0.303169,-0.19293 0.609782,-0.19293 z"
         style="font-style:normal;font-variant:normal;font-weight:800;font-stretch:normal;font-size:7.05555582px;line-height:104.99999523%;font-family:'Open Sans';-inkscape-font-specification:'Open Sans Ultra-Bold';fill:#000000;stroke-width:0.26458332px"
         id="path46075"
         inkscape:connector-curvature="0" />
      <path
         d="m 46.262152,281.43347 -1.347032,0 0,-3.90329 1.347032,0 0,3.90329 z m -1.381483,-4.87481 q 0,-0.30317 0.16881,-0.45131 0.168809,-0.14814 0.544325,-0.14814 0.375515,0 0.54777,0.15159 0.172255,0.15158 0.172255,0.44786 0,0.59255 -0.720025,0.59255 -0.713135,0 -0.713135,-0.59255 z"
         style="font-style:normal;font-variant:normal;font-weight:800;font-stretch:normal;font-size:7.05555582px;line-height:104.99999523%;font-family:'Open Sans';-inkscape-font-specification:'Open Sans Ultra-Bold';fill:#000000;stroke-width:0.26458332px"
         id="path46077"
         inkscape:connector-curvature="0" />
      <path
         d="m 49.6728,281.43347 0,-2.12907 q 0,-0.3893 -0.113688,-0.58567 -0.110243,-0.19981 -0.35829,-0.19981 -0.341065,0 -0.492649,0.27216 -0.151584,0.27216 -0.151584,0.93362 l 0,1.70877 -1.347032,0 0,-3.90329 1.016303,0 0.168809,0.48231 0.07924,0 q 0.172254,-0.27561 0.475423,-0.41341 0.306613,-0.13781 0.702799,-0.13781 0.647678,0 1.005968,0.37552 0.361735,0.37551 0.361735,1.05764 l 0,2.53904 -1.347032,0 z"
         style="font-style:normal;font-variant:normal;font-weight:800;font-stretch:normal;font-size:7.05555582px;line-height:104.99999523%;font-family:'Open Sans';-inkscape-font-specification:'Open Sans Ultra-Bold';fill:#000000;stroke-width:0.26458332px"
         id="path46079"
         inkscape:connector-curvature="0" />
      <path
         d="m 55.619033,277.53018 0,0.65112 -0.53399,0.19637 q 0.110243,0.19981 0.110243,0.46509 0,0.63045 -0.444417,0.9784 -0.440972,0.34796 -1.319472,0.34796 -0.217041,0 -0.344509,-0.0276 -0.04823,0.0896 -0.04823,0.16881 0,0.0999 0.161919,0.15503 0.161919,0.0517 0.423747,0.0517 l 0.647678,0 q 1.312581,0 1.312581,1.10588 0,0.71313 -0.609782,1.10932 -0.606337,0.39619 -1.705322,0.39619 -0.830268,0 -1.281576,-0.27906 -0.447862,-0.2756 -0.447862,-0.79581 0,-0.69936 0.868164,-0.90262 -0.179145,-0.0758 -0.313504,-0.2446 -0.130913,-0.16881 -0.130913,-0.33418 0,-0.18259 0.09991,-0.32039 0.09991,-0.14125 0.416857,-0.33417 -0.303168,-0.13436 -0.478868,-0.42031 -0.172255,-0.28594 -0.172255,-0.6959 0,-0.63735 0.434082,-0.98875 0.434082,-0.3514 1.240234,-0.3514 0.106798,0 0.368626,0.0241 0.261827,0.0241 0.38585,0.0448 l 1.360813,0 z m -2.942112,4.38905 q 0,0.16536 0.179145,0.26527 0.179145,0.10335 0.478869,0.10335 0.489203,0 0.782036,-0.12402 0.296279,-0.12058 0.296279,-0.3135 0,-0.15503 -0.179145,-0.22049 -0.179145,-0.062 -0.51332,-0.062 l -0.527099,0 q -0.217041,0 -0.368625,0.0999 -0.14814,0.10335 -0.14814,0.25149 z m 0.423747,-3.11092 q 0,0.59944 0.416857,0.59944 0.192925,0 0.296278,-0.14814 0.106798,-0.14814 0.106798,-0.44441 0,-0.60634 -0.403076,-0.60634 -0.416857,0 -0.416857,0.59945 z"
         style="font-style:normal;font-variant:normal;font-weight:800;font-stretch:normal;font-size:7.05555582px;line-height:104.99999523%;font-family:'Open Sans';-inkscape-font-specification:'Open Sans Ultra-Bold';fill:#000000;stroke-width:0.26458332px"
         id="path46081"
         inkscape:connector-curvature="0" />
    </g>
  </g>
</svg>
